# xmcd
#
# Track frame offsets: 
#        150
#        27504
#        57055
#        85678
#        119711
#        152998
#        183654
#        213706
#        241462
#        270107
#        295141
#        327534
#
# Disc length: 4733 seconds
#
# Revision: 0
# Processed by: cddbd v1.5.2PL0 Copyright (c) Steve Scherf et al.
# Submitted via: ExactAudioCopy v0.99pb4
#
DISCID=b3127b0c
DTITLE=Various Artist - D: Vision Club Session 9
DYEAR=2009
DGENRE=Electronic
TTITLE0=Chris Lake - If You Knew (Original Mix)
TTITLE1=Yves Larock and Steve Edwards - Listen To The Voice Inside (Orig
TTITLE1=inal Mix)
TTITLE2=Martin Solveig - One 2.3 Four (MS Vox Mix)
TTITLE3=ATFC Feat. Lisa Millet - Bad Habit '09 (ATFC's Classic Re-Visi
TTITLE3=t)
TTITLE4=John Kano - I'm Done With The Pain (Bellatrax Extended Mix)
TTITLE5=Brizi Vs Laura Gaeta - Boa Sorte (Good Luck) (Original Vocal)
TTITLE6=No Halo - Put Your Hands On (Alex Gaudino Remix)
TTITLE7=Kris Reen Vs Majuri - Lifet Me Up (Pain And Rossini Remix)
TTITLE8=Kay and Stoxx - Aint Nobody (Rivaz Club Mix)
TTITLE9=2 Tyme - Missing You (Thomas Gold Mix)
TTITLE10=Lovematic - SEnd Me An Angel (D and F Mix)
TTITLE11=Wamdue Project - King Of My Castle '09 (Rowald Steyn Club Mix
TTITLE11=)
EXTD=
EXTT0=
EXTT1=
EXTT2=
EXTT3=
EXTT4=
EXTT5=
EXTT6=
EXTT7=
EXTT8=
EXTT9=
EXTT10=
EXTT11=
PLAYORDER=
